<?xml version="1.0" standalone="no"?>
<!DOCTYPE svg PUBLIC "-//W3C//DTD SVG 20010904//EN"
 "http://www.w3.org/TR/2001/REC-SVG-20010904/DTD/svg10.dtd">
<svg version="1.0" xmlns="http://www.w3.org/2000/svg"
 width="300.000000pt" height="300.000000pt" viewBox="0 0 300.000000 300.000000"
 preserveAspectRatio="xMidYMid meet">
<metadata>
Created by potrace 1.14, written by Peter Selinger 2001-2017
</metadata>
<g transform="translate(0.000000,300.000000) scale(0.100000,-0.100000)"
fill="#000000" stroke="none">
<path d="M1340 2948 c-660 -72 -1184 -583 -1280 -1248 -12 -78 -15 -289 -6
-350 2 -19 8 -57 11 -85 4 -27 15 -81 26 -120 11 -38 21 -77 23 -85 10 -38 57
-152 89 -216 138 -274 392 -522 670 -653 88 -42 243 -97 301 -106 17 -3 38 -8
46 -10 76 -23 300 -33 430 -20 239 24 487 118 693 262 109 76 277 247 353 358
246 361 314 752 210 1209 -10 44 -75 214 -103 271 -124 248 -337 470 -588 614
-255 146 -577 212 -875 179z m335 -192 c22 -4 60 -11 85 -17 25 -5 48 -10 52
-10 21 1 193 -66 260 -101 384 -199 647 -582 685 -998 26 -286 -35 -549 -183
-790 -363 -589 -1136 -777 -1725 -419 -211 129 -370 302 -483 527 -205 408
-161 925 110 1292 71 97 119 149 210 227 181 155 440 268 659 289 39 4 72 8
74 10 5 5 211 -4 256 -10z"/>
<path d="M1929 1970 c-148 -40 -198 -217 -89 -321 116 -111 309 -36 315 123 3
76 -26 134 -84 170 -39 25 -105 37 -142 28z"/>
<path d="M945 1953 c-78 -43 -118 -139 -92 -227 13 -46 75 -112 114 -120 64
-14 75 -14 121 -1 128 38 174 208 84 308 -48 54 -164 74 -227 40z"/>
<path d="M848 1113 c-35 -22 -50 -63 -38 -103 5 -17 33 -55 62 -86 123 -130
304 -225 484 -254 70 -12 204 -14 259 -5 150 26 250 63 360 133 70 45 188 151
207 185 39 73 -15 156 -94 143 -19 -3 -50 -23 -82 -54 -114 -109 -172 -147
-291 -188 -110 -38 -276 -43 -385 -13 -114 31 -223 93 -304 172 -39 37 -79 72
-88 78 -25 14 -60 11 -90 -8z"/>
</g>
</svg>
